<svg width="302" height="71" viewBox="0 0 302 71" fill="none" xmlns="http://www.w3.org/2000/svg">
<g filter="url(#filter0_dd_428_291)">
<path d="M20.584 62.152C18.28 62.152 16.168 61.992 14.248 61.672C12.328 61.352 10.664 60.68 9.256 59.656C7.848 58.632 6.76 57.128 5.992 55.144C5.224 53.096 4.84 50.344 4.84 46.888V4.264H15.976V50.056C15.976 51.4 16.168 52.488 16.552 53.32C17 54.088 17.576 54.6 18.28 54.856C18.984 55.112 19.752 55.24 20.584 55.24C21.352 55.24 22.088 55.112 22.792 54.856C23.496 54.6 24.04 54.088 24.424 53.32C24.872 52.488 25.096 51.4 25.096 50.056V4.264H36.232V46.888C36.232 50.28 35.848 53 35.08 55.048C34.312 57.096 33.224 58.632 31.816 59.656C30.472 60.68 28.808 61.352 26.824 61.672C24.904 61.992 22.824 62.152 20.584 62.152ZM43.6458 61V13.48H52.9578L53.9178 19.048C54.4938 17.128 55.6138 15.56 57.2778 14.344C59.0058 13.128 60.8938 12.52 62.9418 12.52C66.0138 12.52 68.3178 13.064 69.8538 14.152C71.3898 15.176 72.4138 16.648 72.9258 18.568C73.5018 20.424 73.7898 22.632 73.7898 25.192V61H62.8458V25.864C62.8458 25.096 62.8138 24.392 62.7498 23.752C62.6858 23.048 62.4938 22.44 62.1738 21.928C61.9178 21.416 61.5338 21.032 61.0218 20.776C60.5098 20.456 59.7418 20.296 58.7178 20.296C57.9498 20.296 57.2778 20.456 56.7018 20.776C56.1258 21.032 55.6778 21.352 55.3578 21.736C55.0378 22.12 54.7818 22.472 54.5898 22.792V61H43.6458ZM86.5443 61L77.9043 4.264H89.4243L94.8003 46.6L100.752 4.264H109.968L115.824 46.6L121.296 4.264H132.72L124.176 61H111.216L105.36 28.072L99.6003 61H86.5443ZM144.534 61.768C142.87 61.768 141.302 61.544 139.83 61.096C138.422 60.648 137.238 59.72 136.278 58.312C135.382 56.84 134.934 54.696 134.934 51.88V45.544C134.934 42.536 135.798 40.104 137.526 38.248C139.318 36.328 142.102 34.696 145.878 33.352C147.862 32.52 149.43 31.784 150.582 31.144C151.734 30.504 152.566 29.736 153.078 28.84C153.59 27.88 153.846 26.6 153.846 25V22.408C153.846 21.384 153.686 20.616 153.366 20.104C153.046 19.528 152.566 19.112 151.926 18.856C151.35 18.6 150.678 18.472 149.91 18.472C148.246 18.472 147.158 19.048 146.646 20.2C146.134 21.288 145.878 23.144 145.878 25.768V29.8H135.99V24.712C135.99 22.344 136.31 20.264 136.95 18.472C137.654 16.616 138.998 15.176 140.982 14.152C142.966 13.064 145.942 12.52 149.91 12.52C153.942 12.52 157.046 12.904 159.222 13.672C161.398 14.376 162.902 15.528 163.734 17.128C164.566 18.664 164.982 20.776 164.982 23.464V61H154.038V55.72C153.526 57.576 152.342 59.048 150.486 60.136C148.694 61.224 146.71 61.768 144.534 61.768ZM149.238 54.568C150.966 54.568 152.15 53.928 152.79 52.648C153.494 51.304 153.846 49.448 153.846 47.08V34.888C153.462 35.528 152.822 36.104 151.926 36.616C151.03 37.064 150.134 37.576 149.238 38.152C148.022 38.984 147.094 39.848 146.454 40.744C145.814 41.576 145.494 42.76 145.494 44.296V49.192C145.494 50.536 145.654 51.624 145.974 52.456C146.294 53.224 146.742 53.768 147.318 54.088C147.894 54.408 148.534 54.568 149.238 54.568ZM185.441 61.672C181.473 61.672 178.369 61.192 176.129 60.232C173.953 59.208 172.417 57.64 171.521 55.528C170.689 53.416 170.273 50.76 170.273 47.56V43.912H181.217V50.056C181.217 52.104 181.505 53.576 182.081 54.472C182.657 55.304 183.745 55.72 185.345 55.72C186.753 55.72 187.745 55.336 188.321 54.568C188.961 53.736 189.281 52.52 189.281 50.92V47.272C189.281 45.736 188.993 44.52 188.417 43.624C187.841 42.728 186.945 41.992 185.729 41.416C184.513 40.776 182.977 40.072 181.121 39.304C179.393 38.6 177.793 37.8 176.321 36.904C174.849 36.008 173.633 34.824 172.673 33.352C171.777 31.88 171.329 29.992 171.329 27.688V24.904C171.329 20.936 172.417 17.928 174.593 15.88C176.769 13.768 180.705 12.712 186.401 12.712C190.177 12.712 193.121 13.192 195.233 14.152C197.345 15.112 198.817 16.616 199.649 18.664C200.545 20.648 200.993 23.176 200.993 26.248V29.8H190.433V24.424C190.433 22.312 190.113 20.84 189.473 20.008C188.897 19.112 187.905 18.664 186.497 18.664C184.897 18.664 183.809 19.08 183.233 19.912C182.721 20.744 182.465 21.768 182.465 22.984V26.536C182.465 28.136 182.881 29.416 183.713 30.376C184.609 31.272 185.761 32.008 187.169 32.584C188.577 33.096 190.081 33.672 191.681 34.312C193.345 34.888 194.881 35.624 196.289 36.52C197.697 37.352 198.817 38.472 199.649 39.88C200.545 41.288 200.993 43.176 200.993 45.544V48.424C200.993 51.304 200.513 53.736 199.553 55.72C198.657 57.704 197.057 59.208 194.753 60.232C192.513 61.192 189.409 61.672 185.441 61.672ZM221.07 61.288C219.598 61.288 218.126 61.16 216.654 60.904C215.182 60.648 213.87 60.168 212.718 59.464C211.566 58.696 210.638 57.64 209.934 56.296C209.23 54.888 208.878 53.032 208.878 50.728V19.912H204.366V14.44L209.838 13.48L211.374 4.744H219.822V13.48H228.846V19.912H219.822V48.808C219.822 50.152 220.078 51.368 220.59 52.456C221.102 53.48 222.254 53.992 224.046 53.992C224.878 53.992 225.838 53.96 226.926 53.896C228.014 53.768 228.654 53.704 228.846 53.704V60.328C228.654 60.328 227.758 60.488 226.158 60.808C224.622 61.128 222.926 61.288 221.07 61.288ZM247.798 61.768C244.47 61.768 241.654 61.416 239.35 60.712C237.11 59.944 235.414 58.472 234.262 56.296C233.11 54.056 232.534 50.696 232.534 46.216V24.808C232.534 20.136 233.782 16.936 236.278 15.208C238.774 13.48 242.55 12.616 247.606 12.616C252.598 12.616 256.342 13.48 258.838 15.208C261.334 16.936 262.582 20.136 262.582 24.808V37.768H243.478V50.728C243.478 52.648 243.766 53.992 244.342 54.76C244.982 55.528 246.102 55.912 247.702 55.912C249.174 55.912 250.166 55.56 250.678 54.856C251.254 54.088 251.542 52.712 251.542 50.728V43.144H262.582V46.12C262.582 50.6 262.006 53.96 260.854 56.2C259.702 58.44 258.006 59.944 255.766 60.712C253.59 61.416 250.934 61.768 247.798 61.768ZM243.478 32.776H251.542V24.232C251.542 22.376 251.254 21.064 250.678 20.296C250.166 19.528 249.142 19.144 247.606 19.144C246.07 19.144 244.982 19.528 244.342 20.296C243.766 21.064 243.478 22.376 243.478 24.232V32.776ZM280.17 61.672C278.122 61.672 276.33 61.448 274.794 61C273.258 60.616 271.946 59.912 270.858 58.888C269.77 57.864 268.97 56.392 268.458 54.472C267.946 52.552 267.69 50.088 267.69 47.08V23.944C267.69 21.832 267.978 20.072 268.554 18.664C269.13 17.256 269.898 16.136 270.858 15.304C271.818 14.408 272.906 13.768 274.122 13.384C275.402 13 276.778 12.808 278.25 12.808C280.81 12.808 282.73 13.224 284.01 14.056C285.29 14.824 286.218 15.72 286.794 16.744V0.519995H297.738V61H290.346L289.194 56.488C288.938 57.128 288.458 57.864 287.754 58.696C287.05 59.464 286.09 60.168 284.874 60.808C283.722 61.384 282.154 61.672 280.17 61.672ZM282.666 55.432C283.626 55.432 284.362 55.272 284.874 54.952C285.45 54.568 285.866 54.088 286.122 53.512C286.442 52.872 286.634 52.168 286.698 51.4C286.762 50.632 286.794 49.8 286.794 48.904V21.64C286.73 21.32 286.538 21 286.218 20.68C285.962 20.36 285.546 20.072 284.97 19.816C284.394 19.56 283.658 19.432 282.762 19.432C281.802 19.432 281.034 19.592 280.458 19.912C279.946 20.168 279.53 20.552 279.21 21.064C278.954 21.576 278.794 22.184 278.73 22.888C278.666 23.528 278.634 24.264 278.634 25.096V49.768C278.634 50.856 278.698 51.848 278.826 52.744C279.018 53.576 279.402 54.248 279.978 54.76C280.554 55.208 281.45 55.432 282.666 55.432Z" fill="#E89F72"/>
</g>
<defs>
<filter id="filter0_dd_428_291" x="0.839996" y="0.52002" width="300.898" height="69.6321" filterUnits="userSpaceOnUse" color-interpolation-filters="sRGB">
<feFlood flood-opacity="0" result="BackgroundImageFix"/>
<feColorMatrix in="SourceAlpha" type="matrix" values="0 0 0 0 0 0 0 0 0 0 0 0 0 0 0 0 0 0 127 0" result="hardAlpha"/>
<feOffset dy="4"/>
<feGaussianBlur stdDeviation="2"/>
<feComposite in2="hardAlpha" operator="out"/>
<feColorMatrix type="matrix" values="0 0 0 0 0 0 0 0 0 0 0 0 0 0 0 0 0 0 0.25 0"/>
<feBlend mode="normal" in2="BackgroundImageFix" result="effect1_dropShadow_428_291"/>
<feColorMatrix in="SourceAlpha" type="matrix" values="0 0 0 0 0 0 0 0 0 0 0 0 0 0 0 0 0 0 127 0" result="hardAlpha"/>
<feOffset dy="4"/>
<feGaussianBlur stdDeviation="2"/>
<feComposite in2="hardAlpha" operator="out"/>
<feColorMatrix type="matrix" values="0 0 0 0 0 0 0 0 0 0 0 0 0 0 0 0 0 0 0.25 0"/>
<feBlend mode="normal" in2="effect1_dropShadow_428_291" result="effect2_dropShadow_428_291"/>
<feBlend mode="normal" in="SourceGraphic" in2="effect2_dropShadow_428_291" result="shape"/>
</filter>
</defs>
</svg>
