<svg width="163" height="184" viewBox="0 0 163 184" fill="none" xmlns="http://www.w3.org/2000/svg">
<path d="M161.347 129.56L143.475 96.5634V62.2079C143.475 27.9064 115.568 0 81.2667 0C46.9652 0 19.0588 27.9064 19.0588 62.2079V96.5634L1.1859 129.559C0.37536 131.056 -0.0325853 132.737 0.00203338 134.438C0.036652 136.139 0.512648 137.802 1.38338 139.264C2.25411 140.726 3.48971 141.937 4.96911 142.778C6.4485 143.618 8.12094 144.06 9.82256 144.06H45.4055C45.3069 145.139 45.2516 146.229 45.2516 147.335C45.2516 156.886 49.046 166.047 55.8002 172.801C62.5543 179.555 71.7149 183.35 81.2667 183.35C90.8185 183.35 99.9791 179.555 106.733 172.801C113.487 166.047 117.282 156.886 117.282 147.335C117.282 146.229 117.227 145.139 117.128 144.06H152.711C154.412 144.06 156.085 143.618 157.564 142.777C159.043 141.936 160.278 140.726 161.149 139.264C162.019 137.802 162.495 136.139 162.53 134.438C162.565 132.737 162.157 131.056 161.346 129.56H161.347ZM104.185 147.335C104.188 150.484 103.542 153.601 102.287 156.49C101.031 159.379 99.1941 161.978 96.8894 164.125C94.5848 166.272 91.8623 167.921 88.892 168.969C85.9216 170.017 82.7671 170.441 79.6253 170.216C76.4836 169.99 73.4221 169.119 70.6319 167.658C67.8417 166.196 65.3827 164.175 63.4085 161.721C61.4343 159.267 59.9871 156.432 59.1574 153.393C58.3277 150.354 58.1333 147.177 58.5862 144.06H103.947C104.105 145.145 104.185 146.239 104.185 147.335ZM15.3194 130.964L32.1552 99.8826V62.2079C32.1552 49.1827 37.3294 36.691 46.5396 27.4808C55.7498 18.2706 68.2415 13.0964 81.2667 13.0964C94.2919 13.0964 106.784 18.2706 115.994 27.4808C125.204 36.691 130.378 49.1827 130.378 62.2079V99.8826L147.214 130.964H15.3194Z" fill="#AA4A30"/>
<path d="M87.8152 32.7402H74.7188V88.3999H87.8152V32.7402Z" fill="#AA4A30"/>
<path d="M87.8152 101.498H74.7188V114.594H87.8152V101.498Z" fill="#AA4A30"/>
</svg>
